# xmcd
#
# Track frame offsets:
#	150
#	20954
#	37781
#	55384
#	72599
#	88946
#	104023
#	118209
#	137444
#	152192
#	169409
#	186524
#	209264
#	228944
#	246339
#	258993
#	283853
#	301119
#	314737
#	328680
#
# Disc length: 4602 seconds
#
# Revision: 0
# Processed by: cddbd v1.5.2PL0 Copyright (c) Steve Scherf et al.
# Submitted via: EasyCDDAExtractor 10.2.0.1
#
DISCID=3911f814
DTITLE=Стас Пьеха - Иначе
DYEAR=2008
DGENRE=Pop
TTITLE0=Иначе
TTITLE1=Напиши мне
TTITLE2=О мебе
TTITLE3=Я мебе подаря
TTITLE4=Она не твоя (Дуэт с Григорием Лепсом)
TTITLE5=Обещал
TTITLE6=В облаке тая
TTITLE7=Расставание (Дуэт с Валерией)
TTITLE8=Незнакомая
TTITLE9=Колыбельная
TTITLE10=Полосы
TTITLE11=Посвящение
TTITLE12=белая Мечта (Дует с Юулия Николаевой)
TTITLE13=Город детства
TTITLE14=С новым годом
TTITLE15=Чистые пруды
TTITLE16=Девушка моей мечты
TTITLE17=Дай мне силу
TTITLE18=На волне
TTITLE19=Быть может
EXTD=
EXTT0=
EXTT1=
EXTT2=
EXTT3=
EXTT4=
EXTT5=
EXTT6=
EXTT7=
EXTT8=
EXTT9=
EXTT10=
EXTT11=
EXTT12=
EXTT13=
EXTT14=
EXTT15=
EXTT16=
EXTT17=
EXTT18=
EXTT19=
PLAYORDER=
